<svg width="19" height="12" viewBox="0 0 19 12" fill="none" xmlns="http://www.w3.org/2000/svg">
<path d="M8.18594 5.375C9.15469 4.875 9.68594 4.15625 9.68594 3.0625C9.68594 0.84375 8.02969 0.3125 6.15469 0.3125H0.935938V11.375H6.27969C8.31094 11.375 10.1859 10.4062 10.1859 8.15625C10.1859 6.78125 9.52969 5.75 8.18594 5.375ZM3.34219 2.1875H5.65469C6.52969 2.1875 7.31094 2.4375 7.31094 3.46875C7.31094 4.40625 6.68594 4.78125 5.81094 4.78125H3.34219V2.1875ZM5.96719 9.5H3.34219V6.4375H5.99844C7.09219 6.4375 7.74844 6.90625 7.74844 8.03125C7.74844 9.15625 6.93594 9.5 5.96719 9.5ZM17.1547 1.96875V0.875H12.6859V1.96875H17.1547ZM18.9359 7.5C18.9359 5.125 17.5297 3.125 15.0297 3.125C12.5609 3.125 10.9047 4.96875 10.9047 7.375C10.9047 9.875 12.4984 11.5938 15.0297 11.5938C16.9359 11.5938 18.1859 10.7188 18.7797 8.90625H16.8422C16.6234 9.59375 15.7484 9.9375 15.0922 9.9375C13.8109 9.9375 13.1234 9.1875 13.1234 7.90625H18.9047C18.9047 7.78125 18.9359 7.625 18.9359 7.5ZM13.1234 6.5C13.1859 5.46875 13.9047 4.8125 14.9359 4.8125C16.0609 4.8125 16.6234 5.4375 16.7172 6.5H13.1234Z" fill="black"/>
</svg>
