<svg width="15" height="15" viewBox="0 0 15 15" fill="none" xmlns="http://www.w3.org/2000/svg">
<path d="M3.40469 14.9375V5.59375H0.498437V14.9375H3.40469ZM1.93594 4.34375C2.87344 4.34375 3.62344 3.5625 3.62344 2.625C3.62344 1.71875 2.87344 0.96875 1.93594 0.96875C1.02969 0.96875 0.279687 1.71875 0.279687 2.625C0.279687 3.5625 1.02969 4.34375 1.93594 4.34375ZM14.2484 14.9375H14.2797V9.8125C14.2797 7.3125 13.7172 5.375 10.7797 5.375C9.37344 5.375 8.43594 6.15625 8.02969 6.875H7.99844V5.59375H5.21719V14.9375H8.12344V10.3125C8.12344 9.09375 8.34219 7.9375 9.84219 7.9375C11.3422 7.9375 11.3734 9.3125 11.3734 10.4062V14.9375H14.2484Z" fill="black"/>
</svg>
