<svg width="15" height="15" viewBox="0 0 15 15" fill="none" xmlns="http://www.w3.org/2000/svg">
<path d="M7.24844 4.34375C5.24844 4.34375 3.65469 5.96875 3.65469 7.9375C3.65469 9.9375 5.24844 11.5312 7.24844 11.5312C9.21719 11.5312 10.8422 9.9375 10.8422 7.9375C10.8422 5.96875 9.21719 4.34375 7.24844 4.34375ZM7.24844 10.2812C5.96719 10.2812 4.90469 9.25 4.90469 7.9375C4.90469 6.65625 5.93594 5.625 7.24844 5.625C8.52969 5.625 9.56094 6.65625 9.56094 7.9375C9.56094 9.25 8.52969 10.2812 7.24844 10.2812ZM11.8109 4.21875C11.8109 3.75 11.4359 3.375 10.9672 3.375C10.4984 3.375 10.1234 3.75 10.1234 4.21875C10.1234 4.6875 10.4984 5.0625 10.9672 5.0625C11.4359 5.0625 11.8109 4.6875 11.8109 4.21875ZM14.1859 5.0625C14.1234 3.9375 13.8734 2.9375 13.0609 2.125C12.2484 1.3125 11.2484 1.0625 10.1234 1C8.96719 0.9375 5.49844 0.9375 4.34219 1C3.21719 1.0625 2.24844 1.3125 1.40469 2.125C0.592187 2.9375 0.342187 3.9375 0.279687 5.0625C0.217187 6.21875 0.217187 9.6875 0.279687 10.8438C0.342187 11.9688 0.592187 12.9375 1.40469 13.7812C2.24844 14.5938 3.21719 14.8438 4.34219 14.9062C5.49844 14.9688 8.96719 14.9688 10.1234 14.9062C11.2484 14.8438 12.2484 14.5938 13.0609 13.7812C13.8734 12.9375 14.1234 11.9688 14.1859 10.8438C14.2484 9.6875 14.2484 6.21875 14.1859 5.0625ZM12.6859 12.0625C12.4672 12.6875 11.9672 13.1562 11.3734 13.4062C10.4359 13.7812 8.24844 13.6875 7.24844 13.6875C6.21719 13.6875 4.02969 13.7812 3.12344 13.4062C2.49844 13.1562 2.02969 12.6875 1.77969 12.0625C1.40469 11.1562 1.49844 8.96875 1.49844 7.9375C1.49844 6.9375 1.40469 4.75 1.77969 3.8125C2.02969 3.21875 2.49844 2.75 3.12344 2.5C4.02969 2.125 6.21719 2.21875 7.24844 2.21875C8.24844 2.21875 10.4359 2.125 11.3734 2.5C11.9672 2.71875 12.4359 3.21875 12.6859 3.8125C13.0609 4.75 12.9672 6.9375 12.9672 7.9375C12.9672 8.96875 13.0609 11.1562 12.6859 12.0625Z" fill="black"/>
</svg>
