<svg width="17" height="14" viewBox="0 0 17 14" fill="none" xmlns="http://www.w3.org/2000/svg">
<path d="M14.9359 3.6875C15.5609 3.21875 16.1234 2.65625 16.5609 2C15.9984 2.25 15.3422 2.4375 14.6859 2.5C15.3734 2.09375 15.8734 1.46875 16.1234 0.6875C15.4984 1.0625 14.7797 1.34375 14.0609 1.5C13.4359 0.84375 12.5922 0.46875 11.6547 0.46875C9.84219 0.46875 8.37344 1.9375 8.37344 3.75C8.37344 4 8.40469 4.25 8.46719 4.5C5.74844 4.34375 3.31094 3.03125 1.68594 1.0625C1.40469 1.53125 1.24844 2.09375 1.24844 2.71875C1.24844 3.84375 1.81094 4.84375 2.71719 5.4375C2.18594 5.40625 1.65469 5.28125 1.21719 5.03125V5.0625C1.21719 6.65625 2.34219 7.96875 3.84219 8.28125C3.59219 8.34375 3.27969 8.40625 2.99844 8.40625C2.77969 8.40625 2.59219 8.375 2.37344 8.34375C2.77969 9.65625 3.99844 10.5938 5.43594 10.625C4.31094 11.5 2.90469 12.0312 1.37344 12.0312C1.09219 12.0312 0.842187 12 0.592187 11.9688C2.02969 12.9062 3.74844 13.4375 5.62344 13.4375C11.6547 13.4375 14.9359 8.46875 14.9359 4.125C14.9359 3.96875 14.9359 3.84375 14.9359 3.6875Z" fill="black"/>
</svg>
